<svg width="22" height="35" viewBox="0 0 22 35" fill="none" xmlns="http://www.w3.org/2000/svg">
<g clip-path="url(#clip0_1_27)">
<path d="M1.09365 1.8872H20.3574C20.8662 1.8872 21.2825 1.46048 21.2825 0.95166C21.2825 0.442832 20.8662 0.0265198 20.3574 0.0265198H1.09365C0.58483 0.0265198 0.168518 0.442832 0.168518 0.95166C0.168518 1.46048 0.58483 1.8872 1.09365 1.8872ZM10.7354 19.5909C16.6882 19.5909 20.8662 18.0483 20.8662 15.8578C20.8662 13.6777 16.6114 12.1455 10.7354 12.1455C4.86411 12.1455 0.58483 13.6777 0.58483 15.8578C0.58483 18.0483 4.86411 19.5909 10.7354 19.5909ZM10.3259 26.1277H11.1252C16.0757 26.1277 19.8453 23.3006 20.7052 18.5568C18.8241 20.051 15.2422 20.8938 10.7354 20.8938C6.27638 20.8938 2.63625 20.0464 0.756296 18.5324C1.59073 23.296 5.37067 26.1277 10.3259 26.1277ZM10.7307 35C13.2324 35 16.2113 34.337 17.4839 33.1204C17.8897 32.738 17.8861 32.2818 17.7204 31.7067L16.1971 26.4994C14.6621 27.1526 12.9152 27.4919 11.1403 27.4919H10.2796C8.52546 27.4919 6.79363 27.163 5.25405 26.5202L3.73074 31.7067C3.565 32.2818 3.57178 32.738 3.97182 33.1204C5.25013 34.337 8.21874 35 10.7307 35ZM18.9762 12.0917L19.6152 3.25606H1.83587L2.48995 12.0964C4.54649 11.2401 7.42556 10.7813 10.7354 10.7813C14.0405 10.7813 16.9243 11.2401 18.9762 12.0917Z" fill="white"/>
</g>
<defs>
<clipPath id="clip0_1_27">
<rect width="21.114" height="35" fill="white" transform="translate(0.168518)"/>
</clipPath>
</defs>
</svg>
