<svg width="20" height="35" viewBox="0 0 20 35" fill="none" xmlns="http://www.w3.org/2000/svg">
<g clip-path="url(#clip0_1_19)">
<path d="M4.75227 33.0432C5.91361 33.0432 6.67411 32.3767 6.65572 31.2297L6.37153 15.1621C6.36337 14.6224 6.56172 14.285 7.0115 14.0826C8.86795 13.2546 9.60412 12.3571 9.49366 9.87301L9.10524 1.15113C9.07659 0.564302 8.73313 0.210565 8.16677 0.210565C7.6106 0.210565 7.28551 0.574524 7.28551 1.17768L7.3796 9.66038C7.3796 10.1817 7.05656 10.4721 6.60877 10.4721C6.1528 10.4721 5.81953 10.192 5.81953 9.69714L5.67234 0.920078C5.6621 0.343476 5.31862 0 4.75227 0C4.19613 0 3.85263 0.343476 3.84241 0.920078L3.69518 9.69714C3.69518 10.192 3.36193 10.4721 2.89574 10.4721C2.45002 10.4721 2.13516 10.1817 2.13516 9.66038L2.2108 1.17768C2.2108 0.574524 1.89596 0.210565 1.33982 0.210565C0.781637 0.210565 0.427917 0.564302 0.399268 1.15113L0.0108164 9.87301C-0.0995813 12.3571 0.628401 13.2546 2.50324 14.0826C2.953 14.285 3.15136 14.6224 3.1432 15.1621L2.85903 31.2297C2.84063 32.3767 3.60114 33.0432 4.75227 33.0432ZM15.6948 20.9413L15.3534 31.0642C15.3003 32.3767 16.0955 33.0432 17.2385 33.0432C18.408 33.0432 19.1685 32.4176 19.1685 31.2829V1.00804C19.1685 0.325087 18.7411 0 18.2299 0C17.7106 0 17.3834 0.286233 16.9582 0.881294C14.6478 4.12384 13.1737 10.0245 13.1737 15.9062V16.7605C13.1737 17.8072 13.5274 18.4963 14.2451 18.9909L15.0016 19.5084C15.4985 19.8661 15.7213 20.3178 15.6948 20.9413Z" fill="white"/>
</g>
<defs>
<clipPath id="clip0_1_19">
<rect width="19.1685" height="35" fill="white"/>
</clipPath>
</defs>
</svg>
