<?xml version="1.0" encoding="UTF-8"?>
<!--Generator: Apple Native CoreSVG 232.5-->
<!DOCTYPE svg
PUBLIC "-//W3C//DTD SVG 1.1//EN"
       "http://www.w3.org/Graphics/SVG/1.1/DTD/svg11.dtd">
<svg version="1.1" xmlns="http://www.w3.org/2000/svg" xmlns:xlink="http://www.w3.org/1999/xlink" width="39.1838" height="39.1973">
 <g>
  <rect height="39.1973" opacity="0" width="39.1838" x="0" y="0"/>
  <path d="M19.5889 39.1777C30.3299 39.1777 39.1838 30.3104 39.1838 19.5889C39.1838 8.85391 30.3164 0 19.5754 0C8.85391 0 0 8.85391 0 19.5889C0 30.3104 8.86738 39.1777 19.5889 39.1777Z" fill="#ffffff"/>
  <path d="M20.5736 28.9244C19.8063 28.9244 19.3414 28.3982 19.3414 27.55L19.3414 13.0303L19.2168 13.0303L16.1469 15.0336C15.8113 15.2613 15.6449 15.2943 15.4051 15.2943C14.8877 15.2943 14.4707 14.8295 14.4707 14.3256C14.4707 13.9207 14.6297 13.6762 14.9807 13.4168L18.8072 10.865C19.485 10.4063 19.9033 10.2473 20.4895 10.2473C21.3154 10.2473 21.8254 10.7525 21.8254 11.6459L21.8254 27.55C21.8254 28.3982 21.3666 28.9244 20.5736 28.9244Z" fill="#1e1e1e"/>
 </g>
</svg>
