<?xml version="1.0" encoding="UTF-8"?>
<!--Generator: Apple Native CoreSVG 232.5-->
<!DOCTYPE svg
PUBLIC "-//W3C//DTD SVG 1.1//EN"
       "http://www.w3.org/Graphics/SVG/1.1/DTD/svg11.dtd">
<svg version="1.1" xmlns="http://www.w3.org/2000/svg" xmlns:xlink="http://www.w3.org/1999/xlink" width="39.1838" height="39.1973">
 <g>
  <rect height="39.1973" opacity="0" width="39.1838" x="0" y="0"/>
  <path d="M19.5889 39.1777C30.3299 39.1777 39.1838 30.3104 39.1838 19.5889C39.1838 8.85391 30.3164 0 19.5754 0C8.85391 0 0 8.85391 0 19.5889C0 30.3104 8.86738 39.1777 19.5889 39.1777Z" fill="#ffffff"/>
  <path d="M15.1275 28.5479C14.4047 28.5479 13.9668 28.1309 13.9668 27.474C13.9668 27.1365 14.1137 26.8232 14.3852 26.5053L20.9576 19.3746C22.252 17.9914 23.2705 16.767 23.2705 15.3143C23.2705 13.4906 21.9041 12.2926 19.8145 12.2926C17.7234 12.2926 16.4191 13.6422 16.025 15.1377C15.7824 15.6193 15.4779 15.9777 14.8959 15.9777C14.2586 15.9777 13.8402 15.5668 13.8402 14.9369C13.8402 14.6998 13.8598 14.4896 13.9332 14.2195C14.4762 11.9492 16.923 10.2473 19.7201 10.2473C23.2266 10.2473 25.5301 12.2133 25.5301 15.1572C25.5301 17.1914 24.4617 18.7143 22.5936 20.7359L17.4404 26.3301L17.4404 26.4547L25.3156 26.4547C25.9469 26.4547 26.3861 26.84 26.3861 27.4982C26.3861 28.1309 25.9469 28.5479 25.3156 28.5479Z" fill="#1e1e1e"/>
 </g>
</svg>
