<?xml version="1.0" encoding="UTF-8"?>
<!--Generator: Apple Native CoreSVG 232.5-->
<!DOCTYPE svg
PUBLIC "-//W3C//DTD SVG 1.1//EN"
       "http://www.w3.org/Graphics/SVG/1.1/DTD/svg11.dtd">
<svg version="1.1" xmlns="http://www.w3.org/2000/svg" xmlns:xlink="http://www.w3.org/1999/xlink" width="38.311" height="38.3165">
 <g>
  <rect height="38.3165" opacity="0" width="38.311" x="0" y="0"/>
  <path d="M19.1485 38.2969C29.6813 38.2969 38.311 29.6618 38.311 19.1485C38.311 8.6297 29.6758 0 19.143 0C8.6297 0 0 8.6297 0 19.1485C0 29.6618 8.63517 38.2969 19.1485 38.2969Z" fill="#ffffff"/>
  <path d="M17.0594 28.4743C16.7469 28.4743 16.5234 28.3555 16.2969 28.0797L10.4524 21.2626C10.3141 21.0688 10.2086 20.85 10.2086 20.6399C10.2086 20.225 10.5547 19.9101 10.9415 19.9101C11.2126 19.9101 11.4173 20.0016 11.6243 20.2664L17.0235 26.5929L26.8398 11.268C27.0281 11.0336 27.2687 10.8617 27.5094 10.8617C27.8906 10.8617 28.2555 11.1946 28.2555 11.5782C28.2555 11.7547 28.1703 11.9649 28.0766 12.122L17.8001 28.0797C17.6008 28.3305 17.3579 28.4743 17.0594 28.4743Z" fill="#1e1e1e"/>
 </g>
</svg>
