<?xml version="1.0" encoding="UTF-8"?>
<!--Generator: Apple Native CoreSVG 232.5-->
<!DOCTYPE svg
PUBLIC "-//W3C//DTD SVG 1.1//EN"
       "http://www.w3.org/Graphics/SVG/1.1/DTD/svg11.dtd">
<svg version="1.1" xmlns="http://www.w3.org/2000/svg" xmlns:xlink="http://www.w3.org/1999/xlink" width="38.311" height="38.3165">
 <g>
  <rect height="38.3165" opacity="0" width="38.311" x="0" y="0"/>
  <path d="M19.1485 38.2969C29.6813 38.2969 38.311 29.6618 38.311 19.1485C38.311 8.6297 29.6758 0 19.143 0C8.6297 0 0 8.6297 0 19.1485C0 29.6618 8.63517 38.2969 19.1485 38.2969ZM19.1485 36.8047C9.39537 36.8047 1.49773 28.9016 1.49773 19.1485C1.49773 9.39537 9.3899 1.4782 19.143 1.4782C28.8961 1.4782 36.8187 9.39537 36.8187 19.1485C36.8187 28.9016 28.9016 36.8047 19.1485 36.8047Z" fill="#ffffff"/>
  <path d="M17.0703 28.4258C17.3633 28.4258 17.6008 28.2821 17.7946 28.0281L28.0141 12.1712C28.1024 12.0055 28.2016 11.8008 28.2016 11.6243C28.2016 11.2375 27.8281 10.9242 27.4578 10.9242C27.2226 10.9242 26.9875 11.0961 26.7992 11.325L17.0344 26.5687L11.654 20.2664C11.4524 20.007 11.2477 19.9211 10.9821 19.9211C10.6063 19.9211 10.2657 20.225 10.2657 20.6344C10.2657 20.8532 10.3571 21.0524 10.5039 21.2407L16.3242 28.0281C16.5453 28.3071 16.7492 28.4258 17.0703 28.4258Z" fill="#ffffff"/>
 </g>
</svg>
