<?xml version="1.0" encoding="UTF-8"?>
<!--Generator: Apple Native CoreSVG 232.5-->
<!DOCTYPE svg
PUBLIC "-//W3C//DTD SVG 1.1//EN"
       "http://www.w3.org/Graphics/SVG/1.1/DTD/svg11.dtd">
<svg version="1.1" xmlns="http://www.w3.org/2000/svg" xmlns:xlink="http://www.w3.org/1999/xlink" width="32.2266" height="32.2461">
 <g>
  <rect height="32.2461" opacity="0" width="32.2266" x="0" y="0"/>
  <path d="M0 16.1133C0 17.0703 0.800781 17.8516 1.73828 17.8516L14.375 17.8516L14.375 30.4883C14.375 31.4258 15.1562 32.2266 16.1133 32.2266C17.0703 32.2266 17.8711 31.4258 17.8711 30.4883L17.8711 17.8516L30.4883 17.8516C31.4258 17.8516 32.2266 17.0703 32.2266 16.1133C32.2266 15.1562 31.4258 14.3555 30.4883 14.3555L17.8711 14.3555L17.8711 1.73828C17.8711 0.800781 17.0703 0 16.1133 0C15.1562 0 14.375 0.800781 14.375 1.73828L14.375 14.3555L1.73828 14.3555C0.800781 14.3555 0 15.1562 0 16.1133Z" fill="#ffffff"/>
 </g>
</svg>
