<svg width="29" height="35" viewBox="0 0 29 35" fill="none" xmlns="http://www.w3.org/2000/svg">
<g clip-path="url(#clip0_1_52)">
<path d="M21.2385 6.14363H17.7524V6.06879L21.2819 1.45481C21.5545 1.10065 21.6696 0.90292 21.6696 0.656681C21.6696 0.242644 21.3521 0 20.9174 0H16.3734C15.9882 0 15.7192 0.267941 15.7192 0.639168C15.7192 1.02072 15.9882 1.27833 16.3734 1.27833H19.6788V1.35318L16.123 5.95218C15.8504 6.29601 15.7502 6.48342 15.7502 6.76529C15.7502 7.14834 16.047 7.407 16.4771 7.407H21.2385C21.6237 7.407 21.8927 7.15972 21.8927 6.77247C21.8927 6.40125 21.6237 6.14363 21.2385 6.14363ZM27.933 11.7328H25.306V11.6683L27.981 8.19628C28.2329 7.86849 28.3435 7.6857 28.3435 7.42451C28.3435 7.04146 28.0409 6.80914 27.6372 6.80914H24.0256C23.6714 6.80914 23.4127 7.06676 23.4127 7.407C23.4127 7.78855 23.6714 8.03587 24.0256 8.03587H26.4409V8.10032L23.7958 11.5517C23.5439 11.8692 23.4437 12.0669 23.4437 12.3338C23.4437 12.7009 23.7256 12.9492 24.1293 12.9492H27.933C28.3078 12.9492 28.5561 12.7122 28.5561 12.341C28.5561 11.9801 28.3078 11.7328 27.933 11.7328ZM21.5499 16.6469H19.3563V16.5824L21.5876 13.6765C21.8245 13.3533 21.9396 13.1763 21.9396 12.9357C21.9396 12.563 21.6475 12.341 21.2494 12.341H18.1332C17.7894 12.341 17.541 12.5779 17.541 12.9182C17.541 13.2791 17.7894 13.5057 18.1332 13.5057H20.1197V13.5805L17.9138 16.4808C17.6722 16.7879 17.5674 16.9707 17.5674 17.2319C17.5674 17.584 17.8436 17.822 18.2267 17.822H21.5499C21.904 17.822 22.1466 17.5793 22.1466 17.2344C22.1466 16.8942 21.904 16.6469 21.5499 16.6469Z" fill="white"/>
<path d="M12.8943 33.2714C18.262 33.2714 22.6014 30.6744 24.5933 26.1666C24.7946 25.7123 24.7739 25.2994 24.5417 25.0624C24.345 24.8564 23.9872 24.8171 23.5557 24.9726C22.3282 25.4526 20.9387 25.7153 19.2282 25.7153C12.3742 25.7153 7.98364 21.4735 7.98364 14.6092C7.98364 12.992 8.27019 11.1838 8.8394 10.0071C9.07637 9.53886 9.05215 9.13053 8.84154 8.88428C8.60565 8.62202 8.18336 8.58638 7.631 8.82021C3.25368 10.7531 0.282532 15.3364 0.282532 20.7222C0.282532 27.8299 5.36293 33.2714 12.8943 33.2714Z" fill="white"/>
</g>
<defs>
<clipPath id="clip0_1_52">
<rect width="28.2736" height="35" fill="white" transform="translate(0.282532)"/>
</clipPath>
</defs>
</svg>
