<svg width="23" height="35" viewBox="0 0 23 35" fill="none" xmlns="http://www.w3.org/2000/svg">
<g clip-path="url(#clip0_1_153)">
<path d="M22.0171 28.5088V8.50219C22.0171 5.96165 20.7406 4.67618 18.2229 4.67618H4.35036C1.83264 4.67618 0.556122 5.96165 0.556122 8.50219V28.5088C0.556122 31.0494 1.83264 32.3348 4.35036 32.3348H18.2229C20.7406 32.3348 22.0171 31.0494 22.0171 28.5088ZM2.16296 28.4788V8.53223C2.16296 7.07422 2.93133 6.279 4.43006 6.279H18.1432C19.6419 6.279 20.4103 7.07422 20.4103 8.53223V28.4788C20.4103 29.9457 19.6419 30.732 18.1432 30.732H4.43006C2.93133 30.732 2.16296 29.9457 2.16296 28.4788Z" fill="white"/>
<path d="M7.32028 8.69936H15.253C16.6594 8.69936 17.6688 7.68906 17.6688 6.26291V4.94032C17.6688 3.50117 16.6594 2.49086 15.253 2.49086C14.9241 2.49086 14.6122 2.49086 14.2873 2.49086L15.1236 3.05183C14.7942 1.28106 13.1393 0 11.2867 0C9.43398 0 7.78313 1.28106 7.44966 3.05183L8.28592 2.49086C7.96109 2.49086 7.64916 2.49086 7.32028 2.49086C5.91787 2.49086 4.90445 3.50117 4.90445 4.94032V6.26291C4.90445 7.68906 5.91787 8.69936 7.32028 8.69936Z" fill="#1E1E1E"/>
<path d="M7.32027 7.37081H15.253C15.9253 7.37081 16.3313 6.95494 16.3313 6.2629V4.94031C16.3313 4.24422 15.9253 3.83239 15.253 3.83239H13.8818C13.8232 2.45425 12.6876 1.33258 11.2866 1.33258C9.88567 1.33258 8.7501 2.45425 8.69142 3.83239H7.32027C6.65198 3.83239 6.24196 4.24422 6.24196 4.94031V6.2629C6.24196 6.95494 6.65198 7.37081 7.32027 7.37081ZM11.2866 5.05335C10.6435 5.05335 10.1293 4.52211 10.1293 3.89599C10.1293 3.24391 10.6435 2.72967 11.2866 2.72967C11.9297 2.72967 12.444 3.24391 12.444 3.89599C12.444 4.52211 11.9297 5.05335 11.2866 5.05335Z" fill="white"/>
<path d="M5.40182 24.2482H11.6153C11.9681 24.2482 12.259 23.9572 12.259 23.6044C12.259 23.2476 11.977 22.9566 11.6153 22.9566H5.40182C5.04008 22.9566 4.74908 23.2476 4.74908 23.6044C4.74908 23.9572 5.04904 24.2482 5.40182 24.2482Z" fill="white"/>
<path d="M5.40182 19.3014H17.1714C17.5332 19.3014 17.8242 19.0104 17.8242 18.6487C17.8242 18.2959 17.5332 18.0138 17.1714 18.0138H5.40182C5.04008 18.0138 4.74908 18.2959 4.74908 18.6487C4.74908 19.0104 5.04008 19.3014 5.40182 19.3014Z" fill="white"/>
<path d="M5.40182 14.6213H17.1714C17.5242 14.6213 17.8242 14.3303 17.8242 13.9775C17.8242 13.6247 17.5242 13.3248 17.1714 13.3248H5.40182C5.04904 13.3248 4.74908 13.6247 4.74908 13.9775C4.74908 14.3303 5.04904 14.6213 5.40182 14.6213Z" fill="white"/>
</g>
<defs>
<clipPath id="clip0_1_153">
<rect width="21.461" height="35" fill="white" transform="translate(0.556122)"/>
</clipPath>
</defs>
</svg>
